<?xml version="1.0" encoding="UTF-8" standalone="no"?>
<!DOCTYPE svg PUBLIC "-//W3C//DTD SVG 1.1//EN"
 "http://www.w3.org/Graphics/SVG/1.1/DTD/svg11.dtd">
<!-- Generated by graphviz version 2.50.0 (20211204.2007)
 -->
<!-- Title: G Pages: 1 -->
<svg width="720pt" height="501pt"
 viewBox="0.00 0.00 720.00 500.75" xmlns="http://www.w3.org/2000/svg" xmlns:xlink="http://www.w3.org/1999/xlink">
<g id="graph0" class="graph" transform="scale(0.62 0.62) rotate(0) translate(4 807.32)">
<title>G</title>
<polygon fill="white" stroke="transparent" points="-4,4 -4,-807.32 1162.56,-807.32 1162.56,4 -4,4"/>
<!-- clouded_1:nothing -->
<g id="node1" class="node">
<title>clouded_1:nothing</title>
<ellipse fill="none" stroke="black" cx="897.76" cy="-430.3" rx="39.3" ry="39.3"/>
<text text-anchor="middle" x="897.76" y="-427.2" font-family="Times,serif" font-size="12.00">clouded</text>
</g>
<!-- Distributions.Categorical{P} where P&lt;:Real_3 -->
<g id="node3" class="node">
<title>Distributions.Categorical{P} where P&lt;:Real_3</title>
<polygon fill="lightgray" stroke="black" points="1005.26,-286 719.26,-286 719.26,0 1005.26,0 1005.26,-286"/>
<text text-anchor="middle" x="862.26" y="-139.9" font-family="Times,serif" font-size="12.00">Distributions.Categorical{P} where P&lt;:Real</text>
</g>
<!-- clouded_1:nothing&#45;&#45;Distributions.Categorical{P} where P&lt;:Real_3 -->
<g id="edge1" class="edge">
<title>clouded_1:nothing&#45;&#45;Distributions.Categorical{P} where P&lt;:Real_3</title>
<path fill="none" stroke="black" d="M892.9,-390.95C889.5,-363.44 884.73,-324.86 879.97,-286.32"/>
</g>
<!-- ReactiveMP.DiscreteTransition_6 -->
<g id="node6" class="node">
<title>ReactiveMP.DiscreteTransition_6</title>
<polygon fill="lightgray" stroke="black" points="879.86,-803.32 676.86,-803.32 676.86,-600.32 879.86,-600.32 879.86,-803.32"/>
<text text-anchor="middle" x="778.36" y="-698.72" font-family="Times,serif" font-size="12.00">ReactiveMP.DiscreteTransition</text>
</g>
<!-- clouded_1:nothing&#45;&#45;ReactiveMP.DiscreteTransition_6 -->
<g id="edge2" class="edge">
<title>clouded_1:nothing&#45;&#45;ReactiveMP.DiscreteTransition_6</title>
<path fill="none" stroke="black" d="M881.78,-466.63C866.79,-500.74 843.64,-553.37 823.05,-600.21"/>
</g>
<!-- ReactiveMP.DiscreteTransition_9 -->
<g id="node9" class="node">
<title>ReactiveMP.DiscreteTransition_9</title>
<polygon fill="lightgray" stroke="black" points="735.77,-532.82 532.77,-532.82 532.77,-329.82 735.77,-329.82 735.77,-532.82"/>
<text text-anchor="middle" x="634.27" y="-428.22" font-family="Times,serif" font-size="12.00">ReactiveMP.DiscreteTransition</text>
</g>
<!-- clouded_1:nothing&#45;&#45;ReactiveMP.DiscreteTransition_9 -->
<g id="edge3" class="edge">
<title>clouded_1:nothing&#45;&#45;ReactiveMP.DiscreteTransition_9</title>
<path fill="none" stroke="black" d="M858.32,-430.45C825.94,-430.58 778.63,-430.76 735.81,-430.92"/>
</g>
<!-- constvar_2:[0.5, 0.5] -->
<g id="node2" class="node">
<title>constvar_2:[0.5, 0.5]</title>
<ellipse fill="none" stroke="black" cx="1110.63" cy="-219.87" rx="43.91" ry="43.91"/>
<text text-anchor="middle" x="1110.63" y="-216.77" font-family="Times,serif" font-size="12.00">[0.5, 0.5]</text>
</g>
<!-- constvar_2:[0.5, 0.5]&#45;&#45;Distributions.Categorical{P} where P&lt;:Real_3 -->
<g id="edge4" class="edge">
<title>constvar_2:[0.5, 0.5]&#45;&#45;Distributions.Categorical{P} where P&lt;:Real_3</title>
<path fill="none" stroke="black" d="M1068.78,-206.91C1050.74,-201.33 1028.48,-194.44 1005.32,-187.27"/>
</g>
<!-- rain_4:nothing -->
<g id="node4" class="node">
<title>rain_4:nothing</title>
<ellipse fill="none" stroke="black" cx="486.6" cy="-702.73" rx="25.48" ry="25.48"/>
<text text-anchor="middle" x="486.6" y="-699.63" font-family="Times,serif" font-size="12.00">rain</text>
</g>
<!-- rain_4:nothing&#45;&#45;ReactiveMP.DiscreteTransition_6 -->
<g id="edge5" class="edge">
<title>rain_4:nothing&#45;&#45;ReactiveMP.DiscreteTransition_6</title>
<path fill="none" stroke="black" d="M511.99,-702.65C548.52,-702.54 618,-702.32 676.84,-702.14"/>
</g>
<!-- ReactiveMP.DiscreteTransition_12 -->
<g id="node12" class="node">
<title>ReactiveMP.DiscreteTransition_12</title>
<polygon fill="lightgray" stroke="black" points="471.6,-533.95 268.6,-533.95 268.6,-330.95 471.6,-330.95 471.6,-533.95"/>
<text text-anchor="middle" x="370.1" y="-429.35" font-family="Times,serif" font-size="12.00">ReactiveMP.DiscreteTransition</text>
</g>
<!-- rain_4:nothing&#45;&#45;ReactiveMP.DiscreteTransition_12 -->
<g id="edge6" class="edge">
<title>rain_4:nothing&#45;&#45;ReactiveMP.DiscreteTransition_12</title>
<path fill="none" stroke="black" d="M476.47,-679.22C462.55,-646.92 436.63,-586.81 413.87,-534"/>
</g>
<!-- constvar_5:[0.8 0.2; 0.2 0.8] -->
<g id="node5" class="node">
<title>constvar_5:[0.8 0.2; 0.2 0.8]</title>
<ellipse fill="none" stroke="black" cx="1087.15" cy="-653.8" rx="71.32" ry="71.32"/>
<text text-anchor="middle" x="1087.15" y="-650.7" font-family="Times,serif" font-size="12.00">[0.8 0.2; 0.2 0.8]</text>
</g>
<!-- constvar_5:[0.8 0.2; 0.2 0.8]&#45;&#45;ReactiveMP.DiscreteTransition_6 -->
<g id="edge7" class="edge">
<title>constvar_5:[0.8 0.2; 0.2 0.8]&#45;&#45;ReactiveMP.DiscreteTransition_6</title>
<path fill="none" stroke="black" d="M1016.31,-664.82C975.89,-671.1 924.54,-679.09 879.9,-686.03"/>
</g>
<!-- sprinkler_7:nothing -->
<g id="node7" class="node">
<title>sprinkler_7:nothing</title>
<ellipse fill="none" stroke="black" cx="393.22" cy="-142.92" rx="43.91" ry="43.91"/>
<text text-anchor="middle" x="393.22" y="-139.82" font-family="Times,serif" font-size="12.00">sprinkler</text>
</g>
<!-- sprinkler_7:nothing&#45;&#45;ReactiveMP.DiscreteTransition_9 -->
<g id="edge8" class="edge">
<title>sprinkler_7:nothing&#45;&#45;ReactiveMP.DiscreteTransition_9</title>
<path fill="none" stroke="black" d="M421.35,-176.56C452.58,-213.93 504.51,-276.06 549.26,-329.6"/>
</g>
<!-- sprinkler_7:nothing&#45;&#45;ReactiveMP.DiscreteTransition_12 -->
<g id="edge9" class="edge">
<title>sprinkler_7:nothing&#45;&#45;ReactiveMP.DiscreteTransition_12</title>
<path fill="none" stroke="black" d="M389.74,-186.57C386.69,-224.65 382.17,-281.35 378.22,-330.72"/>
</g>
<!-- constvar_8:[0.5 0.9; 0.5 0.1] -->
<g id="node8" class="node">
<title>constvar_8:[0.5 0.9; 0.5 0.1]</title>
<ellipse fill="none" stroke="black" cx="627.98" cy="-157.46" rx="71.32" ry="71.32"/>
<text text-anchor="middle" x="627.98" y="-154.36" font-family="Times,serif" font-size="12.00">[0.5 0.9; 0.5 0.1]</text>
</g>
<!-- constvar_8:[0.5 0.9; 0.5 0.1]&#45;&#45;ReactiveMP.DiscreteTransition_9 -->
<g id="edge10" class="edge">
<title>constvar_8:[0.5 0.9; 0.5 0.1]&#45;&#45;ReactiveMP.DiscreteTransition_9</title>
<path fill="none" stroke="black" d="M629.62,-229.05C630.33,-259.8 631.17,-296.28 631.94,-329.75"/>
</g>
<!-- wet_grass_10:nothing -->
<g id="node10" class="node">
<title>wet_grass_10:nothing</title>
<ellipse fill="none" stroke="black" cx="171" cy="-653.8" rx="47.3" ry="47.3"/>
<text text-anchor="middle" x="171" y="-650.7" font-family="Times,serif" font-size="12.00">wet_grass</text>
</g>
<!-- wet_grass_10:nothing&#45;&#45;ReactiveMP.DiscreteTransition_12 -->
<g id="edge11" class="edge">
<title>wet_grass_10:nothing&#45;&#45;ReactiveMP.DiscreteTransition_12</title>
<path fill="none" stroke="black" d="M202.99,-618.23C223.55,-595.38 251.38,-564.44 278.43,-534.36"/>
</g>
<!-- constvar_11:[1.0 0.1; 0.0 0.9;;; 0.1 0.01; 0.9 0.99] -->
<g id="node11" class="node">
<title>constvar_11:[1.0 0.1; 0.0 0.9;;; 0.1 0.01; 0.9 0.99]</title>
<ellipse fill="none" stroke="black" cx="145.28" cy="-223.76" rx="145.06" ry="145.06"/>
<text text-anchor="middle" x="145.28" y="-220.66" font-family="Times,serif" font-size="12.00">[1.0 0.1; 0.0 0.9;;; 0.1 0.01; 0.9 0.99]</text>
</g>
<!-- constvar_11:[1.0 0.1; 0.0 0.9;;; 0.1 0.01; 0.9 0.99]&#45;&#45;ReactiveMP.DiscreteTransition_12 -->
<g id="edge12" class="edge">
<title>constvar_11:[1.0 0.1; 0.0 0.9;;; 0.1 0.01; 0.9 0.99]&#45;&#45;ReactiveMP.DiscreteTransition_12</title>
<path fill="none" stroke="black" d="M251.76,-322.6C257.32,-327.77 262.9,-332.95 268.45,-338.09"/>
</g>
</g>
</svg>
